<!--?xml version="1.0" encoding="utf-8"?-->
<!-- Generator: Adobe Illustrator 18.0.0, SVG Export Plug-In . SVG Version: 6.00 Build 0)  -->

<svg version="1.1" id="_x32_" xmlns="http://www.w3.org/2000/svg" xmlns:xlink="http://www.w3.org/1999/xlink" x="0px" y="0px" viewBox="0 0 512 512" style="width: 256px; height: 256px; opacity: 1;" xml:space="preserve">
<style type="text/css">
	.st0{fill:#3aadd4;}
</style>
<g>
	<path class="st0" d="M66.976,149.046v-38.512c-14.512-5.118-24.934-18.999-24.934-35.239c0-20.635,16.78-37.39,37.391-37.39
		c20.635,0,37.391,16.756,37.391,37.39c0,16.24-10.4,30.098-24.912,35.239v32.742l-0.027,5.591c0.01-0.002,0.018-0.004,0.027-0.006
		v0.162c35.381-5.936,62.301-36.69,62.301-73.729c0-41.316-33.463-74.781-74.779-74.781c-41.293,0-74.781,33.465-74.781,74.781
		C4.652,112.334,31.621,143.111,66.976,149.046z" style="fill: #3aadd4;"></path>
	<path class="st0" d="M256.258,149.046c41.293,0,74.779-33.464,74.779-74.78c0-22.65-10.115-42.926-26.037-56.644
		c-0.281-0.241-0.537-0.505-0.82-0.742c-1.031-0.862-2.121-1.654-3.197-2.46c-0.666-0.5-1.305-1.032-1.988-1.51
		c-0.857-0.6-1.762-1.129-2.646-1.693c-0.947-0.604-1.873-1.238-2.85-1.801c-0.789-0.455-1.619-0.843-2.426-1.27
		c-1.114-0.588-2.211-1.201-3.36-1.734c-0.771-0.359-1.578-0.65-2.363-0.982c-1.232-0.522-2.451-1.066-3.717-1.525
		c-0.598-0.215-1.217-0.373-1.82-0.573c-1.508-0.503-3.018-1.008-4.57-1.417c-0.012-0.003-0.021-0.005-0.031-0.008
		c-2.078-0.546-4.187-1.018-6.338-1.391v0.032c-0.055-0.009-0.106-0.024-0.16-0.034v38.512c14.512,5.118,24.936,18.999,24.936,35.24
		c0,20.635-16.779,37.391-37.39,37.391c-20.635,0-37.391-16.756-37.391-37.391c0-16.241,10.398-30.099,24.91-35.24V6.285l0.028-5.59
		c-0.01,0.002-0.018,0.004-0.028,0.006V0.537c-35.379,5.936-62.301,36.689-62.301,73.728
		C181.476,115.582,214.942,149.046,256.258,149.046z" style="fill: #3aadd4;"></path>
	<path class="st0" d="M433.596,149.56c22.53,0,42.701-10.014,56.416-25.787c0.322-0.371,0.672-0.716,0.988-1.094
		c0.777-0.93,1.486-1.914,2.219-2.881c0.582-0.77,1.197-1.512,1.75-2.305c0.52-0.744,0.976-1.532,1.469-2.296
		c0.684-1.06,1.39-2.103,2.023-3.2c0.383-0.666,0.707-1.369,1.07-2.049c0.66-1.234,1.336-2.458,1.93-3.734
		c0.305-0.654,0.547-1.34,0.832-2.005c0.578-1.345,1.17-2.684,1.67-4.071c0.182-0.5,0.311-1.022,0.48-1.526
		c1.223-3.623,2.234-7.354,2.904-11.222h-0.033c0.01-0.053,0.026-0.102,0.033-0.154h-38.512c-5.117,14.512-19,24.934-35.24,24.934
		c-20.635,0-37.39-16.778-37.39-37.391c0-20.635,16.756-37.388,37.39-37.388c16.24,0,30.1,10.398,35.24,24.91H503l4.166,0.02
		c-0.002-0.007-0.004-0.013-0.004-0.013l0.162-0.007C501.389,26.921,470.635,0,433.596,0c-41.316,0-74.779,33.465-74.779,74.779
		C358.816,116.072,392.279,149.56,433.596,149.56z" style="fill: #3aadd4;"></path>
	<path class="st0" d="M108.037,295.843c-4.096,11.609-15.199,19.947-28.194,19.947c-16.508,0-29.91-13.423-29.91-29.912
		c0-16.508,13.402-29.911,29.91-29.911c12.994,0,24.08,8.318,28.194,19.928h27.303l3.33,0.02c-0.002-0.007-0.004-0.013-0.004-0.02
		h0.162c-4.75-28.304-29.352-49.84-58.984-49.84c-33.051,0-59.822,26.771-59.822,59.823c0,33.034,26.771,59.824,59.822,59.824
		c21.895,0,41.028-11.798,51.455-29.358c0.115-0.191,0.244-0.372,0.358-0.565c0.625-1.081,1.184-2.204,1.742-3.327
		c0.227-0.449,0.478-0.881,0.692-1.338c0.412-0.881,0.758-1.796,1.125-2.699c0.303-0.736,0.633-1.456,0.906-2.209
		c0.191-0.53,0.336-1.079,0.512-1.615c0.922-2.78,1.697-5.631,2.213-8.59h-0.033c0.008-0.053,0.024-0.104,0.033-0.157H108.037z" style="fill: #3aadd4;"></path>
	<path class="st0" d="M256.258,226.465c-33.035,0-59.824,26.772-59.824,59.824c0,29.632,21.574,54.254,49.859,59.002v-30.81
		c-11.609-4.095-19.947-15.198-19.947-28.192c0-16.508,13.422-29.912,29.912-29.912c16.508,0,29.912,13.404,29.912,29.912
		c0,12.994-8.32,24.08-19.93,28.192v26.169l-0.028,4.467c0.01-0.002,0.018-0.004,0.028-0.006v0.161
		c28.304-4.749,49.842-29.352,49.842-58.983C316.082,253.236,289.31,226.465,256.258,226.465z" style="fill: #3aadd4;"></path>
	<path class="st0" d="M463.383,233.907c-0.133-0.077-0.256-0.167-0.387-0.244c-1.135-0.657-2.31-1.245-3.488-1.829
		c-0.399-0.196-0.778-0.42-1.18-0.609c-0.951-0.444-1.937-0.818-2.912-1.213c-0.666-0.268-1.31-0.568-1.988-0.814
		c-0.635-0.23-1.295-0.404-1.939-0.613c-1.064-0.347-2.119-0.708-3.211-0.996c-0.049-0.014-0.102-0.022-0.152-0.034
		c-1.614-0.423-3.25-0.794-4.918-1.085v0.03c-0.055-0.009-0.106-0.024-0.16-0.034v30.81c11.61,4.094,19.945,15.198,19.945,28.192
		c0,16.508-13.422,29.912-29.91,29.912c-16.508,0-29.914-13.404-29.914-29.912c0-12.993,8.32-24.079,19.93-28.192v-26.168
		l0.028-4.467c-0.01,0.002-0.018,0.004-0.028,0.006v-0.162c-28.305,4.748-49.84,29.352-49.84,58.982
		c0,33.053,26.769,59.824,59.824,59.824c33.033,0,59.824-26.772,59.824-59.824C492.906,263.502,481.037,244.312,463.383,233.907z" style="fill: #3aadd4;"></path>
	<path class="st0" d="M79.434,422.572c-24.775,0-44.867,20.078-44.867,44.868c0,22.224,16.18,40.69,37.394,44.251v-23.108
		C63.254,485.514,57,477.186,57,467.44c0-12.381,10.066-22.434,22.434-22.434c12.381,0,22.434,10.054,22.434,22.434
		c0,9.745-6.238,18.06-14.945,21.144v19.594l-0.028,3.346c0.01-0.002,0.018-0.006,0.028-0.008v0.162
		c21.226-3.561,37.379-22.014,37.379-44.237C124.301,442.65,104.223,422.572,79.434,422.572z" style="fill: #3aadd4;"></path>
	<path class="st0" d="M277.711,474.606c-3.072,8.707-11.4,14.961-21.144,14.961c-12.381,0-22.434-10.068-22.434-22.434
		c0-12.381,10.053-22.435,22.434-22.435c9.744,0,18.059,6.24,21.144,14.947h20.442l2.492,0.02c0-0.007-0.004-0.013-0.004-0.013
		l0.162-0.007c-3.561-21.228-22.014-37.381-44.236-37.381c-24.789,0-44.869,20.078-44.869,44.868
		c0,24.775,20.08,44.868,44.869,44.868c18.596,0,34.432-11.398,41.234-27.526c0.297-0.7,0.69-1.343,0.953-2.062
		c0.308-0.85,0.453-1.766,0.711-2.638c0.494-1.65,1.047-3.276,1.352-5.008h-0.043c0.01-0.055,0.033-0.106,0.043-0.16H277.711z" style="fill: #3aadd4;"></path>
	<path class="st0" d="M432.774,422.264c-18.643,0-34.516,11.452-41.291,27.643c-0.277,0.66-0.648,1.266-0.896,1.941
		c-0.316,0.871-0.467,1.811-0.73,2.705c-0.484,1.633-1.031,3.236-1.334,4.947h0.041c-0.008,0.055-0.031,0.104-0.041,0.158h23.107
		c3.07-8.707,11.398-14.961,21.145-14.961c12.379,0,22.434,10.068,22.434,22.435c0,12.381-10.055,22.434-22.434,22.434
		c-9.746,0-18.061-6.24-21.145-14.947h-19.695l-3.24-0.026c0.002,0.009,0.006,0.017,0.006,0.026h-0.164
		C392.098,495.848,410.549,512,432.774,512c24.789,0,44.867-20.078,44.867-44.868C477.641,442.356,457.562,422.264,432.774,422.264z
		" style="fill: #3aadd4;"></path>
	<rect y="178" class="st0" width="512" height="14" style="fill: #3aadd4;"></rect>
</g>
</svg>
