<!--?xml version="1.0" encoding="utf-8"?-->
<!-- Generator: Adobe Illustrator 18.1.1, SVG Export Plug-In . SVG Version: 6.00 Build 0)  -->

<svg version="1.1" id="_x32_" xmlns="http://www.w3.org/2000/svg" xmlns:xlink="http://www.w3.org/1999/xlink" x="0px" y="0px" viewBox="0 0 512 512" style="width: 256px; height: 256px; opacity: 1;" xml:space="preserve">
<style type="text/css">
	.st0{fill:#3aadd4;}
</style>
<g>
	<path class="st0" d="M477.4,166.151l-2.557-0.158c-1.062-0.064-2.096-0.092-3.111-0.092c-13.432,0-26.328,5.215-36.105,14.484
		l-0.037-0.037l-98.022,84.211c-15.647-19.008-36.649-33.538-60.347-39.022c2.853,0.646,5.714,1.283-0.378-0.102
		c-4.56-1.015-2.751-0.599-0.351-0.064c-38.45-8.364-73.622,14.327-80.131,53.35c-12.111-5.871-30.427-3.25-34.129-15.324
		c-6.49-21.178-18.805-40.582-34.932-55.723c-6.915-6.49-15.113-12.314-23.956-16.995l85.89-58.722l0.139-0.102
		c4.615-3.342,10.136-5.105,15.749-5.105c1.8,0,3.591,0.194,5.382,0.554l30.271,8.438l6.591-23.671l-31.258-8.714l-0.378-0.074
		c-3.518-0.748-7.072-1.108-10.608-1.108c-10.635,0-21.095,3.323-29.882,9.601l-0.01-0.019L74.615,180.552
		c-21.066-3.776-42.474,0.618-58.104,18.934c-60.661,71.093,60.098,219.104,131.662,146.626c8.576-8.678,14.143-19.904,16.847-31.73
		c1.93-8.438-1.948-17.115,8.539-16.478c19.479,1.024,21.012,7.366,25.849,24.472c12.49,44.118,53.165,86.454,101.262,87.432
		c49.989,1.016,72.634-48.041,63.162-91.873c-2.446-11.318-6.711-22.424-12.408-32.865l100.478-86.334l0.295-0.277
		c5.096-4.985,11.863-7.754,18.916-7.921l29.679,15.204L512,183.866L477.4,166.151z M127.558,326.706
		c-54.291,48.06-140.108-63.689-88.374-110.364c12.499-11.364,26.781-13.986,40.693-10.829l0.562,0.822l0.748-0.508
		C126.94,217.404,167.984,291.34,127.558,326.706z M325.151,372.901c-56.322,47.802-143.681-64.528-89.758-111.86
		C291.244,211.828,380.237,325.635,325.151,372.901z" style="fill: #3aadd4;"></path>
</g>
</svg>
