<svg width="100" height="100" viewBox="0 0 200 200" xmlns="http://www.w3.org/2000/svg">
  <path fill="#5FAED8" d="M25.6,-41.2C38.2,-37,57,-40.4,64.6,-34.8C72.1,-29.2,68.3,-14.6,59,-5.4C49.6,3.8,34.6,7.5,26.9,12.8C19.1,18,18.6,24.7,15.3,28.1C12.1,31.4,6,31.5,1,29.7C-3.9,27.9,-7.9,24.2,-20,25.9C-32.1,27.7,-52.4,34.8,-59.7,31.4C-67,28,-61.3,14,-55.4,3.4C-49.5,-7.2,-43.4,-14.4,-35.3,-16.4C-27.3,-18.5,-17.3,-15.5,-11,-23.5C-4.8,-31.4,-2.4,-50.2,2,-53.7C6.5,-57.2,12.9,-45.4,25.6,-41.2Z" transform="translate(100 100)" />
</svg>
