<svg width="300" height="300" viewBox="0 0 200 200" xmlns="http://www.w3.org/2000/svg">
  <path fill="#5FAED8" d="M42.4,-68.1C56.2,-65.5,69.6,-56.7,75.1,-44.3C80.7,-31.9,78.5,-16,74.1,-2.5C69.7,10.9,63.3,21.9,57.5,33.9C51.7,45.9,46.7,59,37.2,65.2C27.8,71.4,13.9,70.7,-1,72.5C-15.9,74.3,-31.8,78.5,-42.4,72.9C-52.9,67.3,-58.1,51.9,-63.6,38.1C-69.2,24.3,-75.2,12.2,-76.9,-1C-78.6,-14.2,-76.1,-28.3,-68.1,-37.8C-60,-47.3,-46.5,-52.2,-34.2,-55.7C-22,-59.3,-11,-61.5,1.7,-64.3C14.3,-67.2,28.6,-70.7,42.4,-68.1Z" transform="translate(100 100)" />
</svg>
